# xmcd
#
# Track frame offsets:
#	150
#	16464
#	41711
#	64343
#	83573
#	99327
#	116007
#	135884
#	161261
#	187793
#	205557
#	224647
#	245841
#
# Disc length: 3492 seconds
#
# Revision: 0
# Processed by: cddbd v1.4PL0 Copyright (c) Steve Scherf et al.
# Submitted via: EasyCDDAExtractor 4.5.0.2
#
DISCID=a90da20d
DTITLE=Various Artist - Mixing In Action
DYEAR=1993
DGENRE=Dance
TTITLE0=Freddie Mercury - Living On My Own
TTITLE1=Vasco Rossi - Delusa
TTITLE2=Pet Shop Boys - Go West
TTITLE3=Haddaway - Life
TTITLE4=Ace Of Base - All That She Wants
TTITLE5=Shara Nelson - Down That Road (Single Edit)
TTITLE6=Tina Turner - I Don't Wanna Fight (Single Edit)
TTITLE7=Culture Beat - Mr. Vain
TTITLE8=B.G. The Prince Of Rap - Can We Get Enough?
TTITLE9=Duran Duran - Too Much Information (Album Version Edit)
TTITLE10=Terence Trent D'arby - Delicate
TTITLE11=Kate Bush - Rubberband Girl
TTITLE12=Billy Idol - Shock To The System
EXTD=
EXTT0=
EXTT1=
EXTT2=
EXTT3=
EXTT4=
EXTT5=
EXTT6=
EXTT7=
EXTT8=
EXTT9=
EXTT10=
EXTT11=
EXTT12=
PLAYORDER=
